<?xml version="1.0" encoding="UTF-8"?><svg id="Layer_1" xmlns="http://www.w3.org/2000/svg" viewBox="0 0 36 36"><defs><style>.cls-1{fill:#000;stroke-width:0px;}</style></defs><path class="cls-1" d="M13,8c1.3,0,2.4-.84,2.82-2h1.18v3h2v-3h1.18c.41,1.16,1.51,2,2.82,2,1.65,0,3-1.35,3-3s-1.35-3-3-3c-1.3,0-2.4.84-2.82,2h-4.37c-.41-1.16-1.51-2-2.82-2-1.65,0-3,1.35-3,3s1.35,3,3,3ZM23,4c.55,0,1,.45,1,1s-.45,1-1,1-1-.45-1-1,.45-1,1-1ZM13,4c.55,0,1,.45,1,1s-.45,1-1,1-1-.45-1-1,.45-1,1-1ZM30,7.82v7.18h-4v2h4c1.1,0,2-.9,2-2v-7.18c1.16-.41,2-1.51,2-2.82,0-1.65-1.35-3-3-3s-3,1.35-3,3c0,1.3.84,2.4,2,2.82ZM31,4c.55,0,1,.45,1,1s-.45,1-1,1-1-.45-1-1,.45-1,1-1ZM32,28.18v-7.18c0-1.1-.9-2-2-2h-4v2h4v7.18c-1.16.41-2,1.51-2,2.82,0,1.65,1.35,3,3,3s3-1.35,3-3c0-1.3-.84-2.4-2-2.82ZM31,32c-.55,0-1-.45-1-1s.45-1,1-1,1,.45,1,1-.45,1-1,1ZM19,19h-2v2h2v-2ZM23,28c-1.3,0-2.4.84-2.82,2h-1.18v-3h-2v3h-1.18c-.41-1.16-1.51-2-2.82-2-1.65,0-3,1.35-3,3s1.35,3,3,3c1.3,0,2.4-.84,2.82-2h4.37c.41,1.16,1.51,2,2.82,2,1.65,0,3-1.35,3-3s-1.35-3-3-3ZM13,32c-.55,0-1-.45-1-1s.45-1,1-1,1,.45,1,1-.45,1-1,1ZM23,32c-.55,0-1-.45-1-1s.45-1,1-1,1,.45,1,1-.45,1-1,1ZM6,28.18v-7.18h4v-2h-4c-1.1,0-2,.9-2,2v7.18c-1.16.41-2,1.51-2,2.82,0,1.65,1.35,3,3,3s3-1.35,3-3c0-1.3-.84-2.4-2-2.82ZM5,32c-.55,0-1-.45-1-1s.45-1,1-1,1,.45,1,1-.45,1-1,1ZM4,7.82v7.18c0,1.1.9,2,2,2h4v-2h-4v-7.18c1.16-.41,2-1.51,2-2.82,0-1.65-1.35-3-3-3s-3,1.35-3,3c0,1.3.84,2.4,2,2.82ZM5,4c.55,0,1,.45,1,1s-.45,1-1,1-1-.45-1-1,.45-1,1-1ZM22,15c0-2.21-1.79-4-4-4s-4,1.79-4,4h-1c-.55,0-1,.45-1,1v8c0,.55.45,1,1,1h10c.55,0,1-.45,1-1v-8c0-.55-.45-1-1-1h-1ZM18,13c1.1,0,2,.9,2,2h-4c0-1.1.9-2,2-2ZM22,23h-8v-6h8v6Z"/></svg>